<mxfile host="app.diagrams.net" agent="Mozilla/5.0 (Windows NT 10.0; Win64; x64) AppleWebKit/537.36 (KHTML, like Gecko) Chrome/133.0.0.0 Safari/537.36 Edg/133.0.0.0" version="26.0.16">
  <diagram name="Page-1" id="b5b7bab2-c9e2-2cf4-8b2a-24fd1a2a6d21">
    <mxGraphModel dx="2479" dy="876" grid="1" gridSize="10" guides="1" tooltips="1" connect="1" arrows="1" fold="1" page="1" pageScale="1" pageWidth="1169" pageHeight="1654" background="none" math="0" shadow="0">
      <root>
        <mxCell id="0" />
        <mxCell id="1" parent="0" />
        <mxCell id="b8BoynQH1urvAzpv5KXK-1" value="Người dùng" style="shape=umlActor;verticalLabelPosition=bottom;verticalAlign=top;html=1;outlineConnect=0;" vertex="1" parent="1">
          <mxGeometry x="260" y="350" width="70" height="110" as="geometry" />
        </mxCell>
        <mxCell id="b8BoynQH1urvAzpv5KXK-3" value="Giáo vụ" style="shape=umlActor;verticalLabelPosition=bottom;verticalAlign=top;html=1;outlineConnect=0;" vertex="1" parent="1">
          <mxGeometry x="170" y="530" width="60" height="100" as="geometry" />
        </mxCell>
        <mxCell id="b8BoynQH1urvAzpv5KXK-4" value="Học viên" style="shape=umlActor;verticalLabelPosition=bottom;verticalAlign=top;html=1;outlineConnect=0;" vertex="1" parent="1">
          <mxGeometry x="390" y="250" width="60" height="100" as="geometry" />
        </mxCell>
        <mxCell id="b8BoynQH1urvAzpv5KXK-6" value="&lt;font style=&quot;color: rgb(255, 51, 51); font-size: 18px;&quot;&gt;Đăng nhập&lt;/font&gt;" style="ellipse;whiteSpace=wrap;html=1;" vertex="1" parent="1">
          <mxGeometry x="100" y="250" width="120" height="80" as="geometry" />
        </mxCell>
        <mxCell id="b8BoynQH1urvAzpv5KXK-7" value="" style="endArrow=none;html=1;rounded=0;exitX=1;exitY=1;exitDx=0;exitDy=0;strokeWidth=3;" edge="1" parent="1" source="b8BoynQH1urvAzpv5KXK-6">
          <mxGeometry width="50" height="50" relative="1" as="geometry">
            <mxPoint x="560" y="520" as="sourcePoint" />
            <mxPoint x="260" y="350" as="targetPoint" />
          </mxGeometry>
        </mxCell>
        <mxCell id="b8BoynQH1urvAzpv5KXK-13" value="" style="endArrow=block;html=1;rounded=0;exitX=0.5;exitY=0;exitDx=0;exitDy=0;exitPerimeter=0;endFill=0;strokeWidth=3;" edge="1" parent="1" source="b8BoynQH1urvAzpv5KXK-3">
          <mxGeometry width="50" height="50" relative="1" as="geometry">
            <mxPoint x="560" y="520" as="sourcePoint" />
            <mxPoint x="260" y="470" as="targetPoint" />
          </mxGeometry>
        </mxCell>
        <mxCell id="b8BoynQH1urvAzpv5KXK-18" value="" style="endArrow=block;html=1;rounded=0;endFill=0;strokeWidth=3;" edge="1" parent="1" source="b8BoynQH1urvAzpv5KXK-4" target="b8BoynQH1urvAzpv5KXK-1">
          <mxGeometry width="50" height="50" relative="1" as="geometry">
            <mxPoint x="210" y="540" as="sourcePoint" />
            <mxPoint x="330" y="480" as="targetPoint" />
          </mxGeometry>
        </mxCell>
        <mxCell id="b8BoynQH1urvAzpv5KXK-21" value="&lt;font style=&quot;color: rgb(255, 51, 51); font-size: 18px;&quot;&gt;Đăng ký tài khoản&lt;/font&gt;" style="ellipse;whiteSpace=wrap;html=1;" vertex="1" parent="1">
          <mxGeometry x="520" y="200" width="120" height="80" as="geometry" />
        </mxCell>
        <mxCell id="b8BoynQH1urvAzpv5KXK-24" value="" style="endArrow=none;html=1;rounded=0;exitX=0;exitY=0.5;exitDx=0;exitDy=0;strokeWidth=3;" edge="1" parent="1" source="b8BoynQH1urvAzpv5KXK-21">
          <mxGeometry width="50" height="50" relative="1" as="geometry">
            <mxPoint x="212" y="328" as="sourcePoint" />
            <mxPoint x="460" y="260" as="targetPoint" />
          </mxGeometry>
        </mxCell>
        <mxCell id="b8BoynQH1urvAzpv5KXK-27" value="&amp;lt;&amp;lt;extend&amp;gt;&amp;gt;" style="edgeStyle=none;html=1;startArrow=open;endArrow=none;startSize=12;verticalAlign=bottom;dashed=1;labelBackgroundColor=none;rounded=0;" edge="1" parent="1">
          <mxGeometry width="160" relative="1" as="geometry">
            <mxPoint x="10" y="280" as="sourcePoint" />
            <mxPoint x="110" y="280" as="targetPoint" />
          </mxGeometry>
        </mxCell>
        <mxCell id="b8BoynQH1urvAzpv5KXK-28" value="&lt;font style=&quot;font-size: 14px; color: rgb(255, 102, 102);&quot;&gt;Đăng nhập bằng tài khoản microsoft&lt;/font&gt;" style="ellipse;whiteSpace=wrap;html=1;" vertex="1" parent="1">
          <mxGeometry x="-130" y="230" width="140" height="90" as="geometry" />
        </mxCell>
        <mxCell id="b8BoynQH1urvAzpv5KXK-29" value="&lt;font style=&quot;font-size: 14px; color: rgb(255, 0, 0);&quot;&gt;Lập thời khóa biểu cá nhân&lt;/font&gt;" style="ellipse;whiteSpace=wrap;html=1;" vertex="1" parent="1">
          <mxGeometry x="525" y="320" width="125" height="80" as="geometry" />
        </mxCell>
        <mxCell id="b8BoynQH1urvAzpv5KXK-30" value="" style="endArrow=none;html=1;rounded=0;strokeWidth=3;exitX=0;exitY=0.5;exitDx=0;exitDy=0;" edge="1" parent="1" source="b8BoynQH1urvAzpv5KXK-29">
          <mxGeometry width="50" height="50" relative="1" as="geometry">
            <mxPoint x="520" y="350" as="sourcePoint" />
            <mxPoint x="460" y="330" as="targetPoint" />
          </mxGeometry>
        </mxCell>
        <mxCell id="b8BoynQH1urvAzpv5KXK-31" value="&lt;font style=&quot;font-size: 14px; color: rgb(255, 51, 51);&quot;&gt;Xem thời khóa biểu có sẵn&lt;/font&gt;" style="ellipse;whiteSpace=wrap;html=1;" vertex="1" parent="1">
          <mxGeometry x="520" y="430" width="132.5" height="80" as="geometry" />
        </mxCell>
        <mxCell id="b8BoynQH1urvAzpv5KXK-32" value="" style="endArrow=none;html=1;rounded=0;strokeWidth=3;exitX=0;exitY=0.5;exitDx=0;exitDy=0;" edge="1" parent="1" source="b8BoynQH1urvAzpv5KXK-31">
          <mxGeometry width="50" height="50" relative="1" as="geometry">
            <mxPoint x="535" y="370" as="sourcePoint" />
            <mxPoint x="450" y="370" as="targetPoint" />
          </mxGeometry>
        </mxCell>
        <mxCell id="b8BoynQH1urvAzpv5KXK-39" value="&amp;lt;&amp;lt;extend&amp;gt;&amp;gt;" style="html=1;verticalAlign=bottom;labelBackgroundColor=none;endArrow=open;endFill=0;dashed=1;rounded=0;" edge="1" parent="1">
          <mxGeometry width="160" relative="1" as="geometry">
            <mxPoint x="650" y="359.5" as="sourcePoint" />
            <mxPoint x="750" y="360" as="targetPoint" />
          </mxGeometry>
        </mxCell>
        <mxCell id="b8BoynQH1urvAzpv5KXK-40" value="Microsoft" style="shape=umlActor;verticalLabelPosition=bottom;verticalAlign=top;html=1;outlineConnect=0;" vertex="1" parent="1">
          <mxGeometry x="-220" y="340" width="80" height="110" as="geometry" />
        </mxCell>
        <mxCell id="b8BoynQH1urvAzpv5KXK-41" value="" style="endArrow=none;html=1;rounded=0;entryX=0;entryY=1;entryDx=0;entryDy=0;strokeWidth=3;dashed=1;" edge="1" parent="1" target="b8BoynQH1urvAzpv5KXK-28">
          <mxGeometry width="50" height="50" relative="1" as="geometry">
            <mxPoint x="-150" y="350" as="sourcePoint" />
            <mxPoint x="140" y="420" as="targetPoint" />
          </mxGeometry>
        </mxCell>
        <mxCell id="b8BoynQH1urvAzpv5KXK-42" value="&lt;font style=&quot;font-size: 14px; color: rgb(255, 51, 51);&quot;&gt;Hệ thống tự lập ngẫu nhiên&lt;/font&gt;" style="ellipse;whiteSpace=wrap;html=1;" vertex="1" parent="1">
          <mxGeometry x="750" y="320" width="120" height="80" as="geometry" />
        </mxCell>
        <mxCell id="b8BoynQH1urvAzpv5KXK-43" value="&amp;lt;&amp;lt;include&amp;gt;&amp;gt;" style="html=1;verticalAlign=bottom;labelBackgroundColor=none;endArrow=open;endFill=0;dashed=1;rounded=0;" edge="1" parent="1">
          <mxGeometry width="160" relative="1" as="geometry">
            <mxPoint x="870" y="359.5" as="sourcePoint" />
            <mxPoint x="950" y="360" as="targetPoint" />
          </mxGeometry>
        </mxCell>
        <mxCell id="b8BoynQH1urvAzpv5KXK-44" value="&lt;font style=&quot;color: rgb(255, 0, 0); font-size: 14px;&quot;&gt;Nhập các môn học&lt;/font&gt;" style="ellipse;whiteSpace=wrap;html=1;" vertex="1" parent="1">
          <mxGeometry x="950" y="320" width="120" height="80" as="geometry" />
        </mxCell>
        <mxCell id="b8BoynQH1urvAzpv5KXK-45" value="" style="endArrow=none;html=1;rounded=0;strokeWidth=3;" edge="1" parent="1" source="b8BoynQH1urvAzpv5KXK-3" target="b8BoynQH1urvAzpv5KXK-46">
          <mxGeometry width="50" height="50" relative="1" as="geometry">
            <mxPoint x="360" y="550" as="sourcePoint" />
            <mxPoint x="240" y="580" as="targetPoint" />
          </mxGeometry>
        </mxCell>
        <mxCell id="b8BoynQH1urvAzpv5KXK-46" value="&lt;font style=&quot;color: rgb(255, 51, 51); font-size: 14px;&quot;&gt;lập thời khóa biểu toàn trường&lt;/font&gt;" style="ellipse;whiteSpace=wrap;html=1;" vertex="1" parent="1">
          <mxGeometry x="320" y="540" width="120" height="80" as="geometry" />
        </mxCell>
        <mxCell id="b8BoynQH1urvAzpv5KXK-47" value="&lt;font style=&quot;color: rgb(255, 51, 51); font-size: 14px;&quot;&gt;Nhập lớp học&amp;nbsp;&lt;/font&gt;" style="ellipse;whiteSpace=wrap;html=1;" vertex="1" parent="1">
          <mxGeometry x="510" y="540" width="120" height="80" as="geometry" />
        </mxCell>
        <mxCell id="b8BoynQH1urvAzpv5KXK-48" value="&amp;lt;&amp;lt;extend&amp;gt;&amp;gt;" style="edgeStyle=none;html=1;startArrow=open;endArrow=none;startSize=12;verticalAlign=bottom;dashed=1;labelBackgroundColor=none;rounded=0;entryX=1;entryY=0.5;entryDx=0;entryDy=0;exitX=0;exitY=0.5;exitDx=0;exitDy=0;" edge="1" parent="1" source="b8BoynQH1urvAzpv5KXK-47" target="b8BoynQH1urvAzpv5KXK-46">
          <mxGeometry width="160" relative="1" as="geometry">
            <mxPoint x="20" y="290" as="sourcePoint" />
            <mxPoint x="120" y="290" as="targetPoint" />
          </mxGeometry>
        </mxCell>
        <mxCell id="b8BoynQH1urvAzpv5KXK-50" value="&amp;lt;&amp;lt;include&amp;gt;&amp;gt;" style="html=1;verticalAlign=bottom;labelBackgroundColor=none;endArrow=open;endFill=0;dashed=1;rounded=0;exitX=1;exitY=1;exitDx=0;exitDy=0;" edge="1" parent="1" source="b8BoynQH1urvAzpv5KXK-46" target="b8BoynQH1urvAzpv5KXK-51">
          <mxGeometry width="160" relative="1" as="geometry">
            <mxPoint x="290" y="540" as="sourcePoint" />
            <mxPoint x="510" y="650" as="targetPoint" />
          </mxGeometry>
        </mxCell>
        <mxCell id="b8BoynQH1urvAzpv5KXK-51" value="&lt;font style=&quot;color: rgb(255, 0, 0); font-size: 14px;&quot;&gt;Nhập môn học, số lượng sinh viên cho từng môn, hạn chế đặc biệt&lt;/font&gt;" style="ellipse;whiteSpace=wrap;html=1;" vertex="1" parent="1">
          <mxGeometry x="500" y="660" width="180" height="80" as="geometry" />
        </mxCell>
        <mxCell id="b8BoynQH1urvAzpv5KXK-52" value="&amp;lt;&amp;lt;extend&amp;gt;&amp;gt;" style="edgeStyle=none;html=1;startArrow=open;endArrow=none;startSize=12;verticalAlign=bottom;dashed=1;labelBackgroundColor=none;rounded=0;entryX=0.5;entryY=1;entryDx=0;entryDy=0;" edge="1" parent="1" target="b8BoynQH1urvAzpv5KXK-46">
          <mxGeometry width="160" relative="1" as="geometry">
            <mxPoint x="380" y="700" as="sourcePoint" />
            <mxPoint x="450" y="590" as="targetPoint" />
          </mxGeometry>
        </mxCell>
        <mxCell id="b8BoynQH1urvAzpv5KXK-55" value="&lt;font style=&quot;color: rgb(255, 0, 0); font-size: 14px;&quot;&gt;Xuất file excel&lt;/font&gt;" style="ellipse;whiteSpace=wrap;html=1;" vertex="1" parent="1">
          <mxGeometry x="320" y="700" width="120" height="80" as="geometry" />
        </mxCell>
        <mxCell id="b8BoynQH1urvAzpv5KXK-56" value="Excel&lt;div&gt;&lt;br&gt;&lt;/div&gt;" style="shape=umlActor;verticalLabelPosition=bottom;verticalAlign=top;html=1;" vertex="1" parent="1">
          <mxGeometry x="347.5" y="810" width="65" height="90" as="geometry" />
        </mxCell>
        <mxCell id="b8BoynQH1urvAzpv5KXK-59" value="" style="endArrow=none;html=1;rounded=0;exitX=0.5;exitY=0;exitDx=0;exitDy=0;exitPerimeter=0;entryX=0.5;entryY=1;entryDx=0;entryDy=0;dashed=1;strokeWidth=3;" edge="1" parent="1" source="b8BoynQH1urvAzpv5KXK-56" target="b8BoynQH1urvAzpv5KXK-55">
          <mxGeometry width="50" height="50" relative="1" as="geometry">
            <mxPoint x="360" y="780" as="sourcePoint" />
            <mxPoint x="410" y="730" as="targetPoint" />
          </mxGeometry>
        </mxCell>
      </root>
    </mxGraphModel>
  </diagram>
</mxfile>
